<mxfile host="app.diagrams.net" agent="Mozilla/5.0 (Macintosh; Intel Mac OS X 10_15_7) AppleWebKit/537.36 (KHTML, like Gecko) Chrome/138.0.0.0 Safari/537.36" version="27.1.3">
  <diagram name="第 1 页" id="aimSJ0dh8W9tADsjNhFP">
    <mxGraphModel dx="1234" dy="770" grid="1" gridSize="10" guides="1" tooltips="1" connect="1" arrows="1" fold="1" page="1" pageScale="1" pageWidth="827" pageHeight="1169" math="0" shadow="0">
      <root>
        <mxCell id="0" />
        <mxCell id="1" parent="0" />
        <mxCell id="1Vk-jTQf-b6BDEaOAY5S-19" value="" style="rounded=0;whiteSpace=wrap;html=1;sketch=1;hachureGap=4;jiggle=2;curveFitting=1;fontFamily=Architects Daughter;fontSource=https%3A%2F%2Ffonts.googleapis.com%2Fcss%3Ffamily%3DArchitects%2BDaughter;fillColor=#ffe6cc;strokeColor=#d79b00;" vertex="1" parent="1">
          <mxGeometry x="170" y="55" width="820" height="90" as="geometry" />
        </mxCell>
        <mxCell id="1Vk-jTQf-b6BDEaOAY5S-11" value="" style="rounded=0;whiteSpace=wrap;html=1;sketch=1;hachureGap=4;jiggle=2;curveFitting=1;fontFamily=Architects Daughter;fontSource=https%3A%2F%2Ffonts.googleapis.com%2Fcss%3Ffamily%3DArchitects%2BDaughter;fillColor=#e1d5e7;strokeColor=#9673a6;" vertex="1" parent="1">
          <mxGeometry x="170" y="160" width="820" height="90" as="geometry" />
        </mxCell>
        <mxCell id="1Vk-jTQf-b6BDEaOAY5S-8" value="" style="rounded=0;whiteSpace=wrap;html=1;sketch=1;hachureGap=4;jiggle=2;curveFitting=1;fontFamily=Architects Daughter;fontSource=https%3A%2F%2Ffonts.googleapis.com%2Fcss%3Ffamily%3DArchitects%2BDaughter;fillColor=#dae8fc;strokeColor=#6c8ebf;" vertex="1" parent="1">
          <mxGeometry x="170" y="260" width="820" height="90" as="geometry" />
        </mxCell>
        <mxCell id="1Vk-jTQf-b6BDEaOAY5S-5" value="" style="rounded=0;whiteSpace=wrap;html=1;sketch=1;hachureGap=4;jiggle=2;curveFitting=1;fontFamily=Architects Daughter;fontSource=https%3A%2F%2Ffonts.googleapis.com%2Fcss%3Ffamily%3DArchitects%2BDaughter;fillColor=#d5e8d4;strokeColor=#82b366;" vertex="1" parent="1">
          <mxGeometry x="170" y="360" width="820" height="100" as="geometry" />
        </mxCell>
        <mxCell id="1Vk-jTQf-b6BDEaOAY5S-1" value="&lt;span style=&quot;font-size: 36px;&quot;&gt;微信&lt;/span&gt;" style="rounded=1;whiteSpace=wrap;html=1;sketch=1;hachureGap=4;jiggle=2;curveFitting=1;fontFamily=Architects Daughter;fontSource=https%3A%2F%2Ffonts.googleapis.com%2Fcss%3Ffamily%3DArchitects%2BDaughter;" vertex="1" parent="1">
          <mxGeometry x="200" y="380" width="170" height="60" as="geometry" />
        </mxCell>
        <mxCell id="1Vk-jTQf-b6BDEaOAY5S-2" value="&lt;font style=&quot;font-size: 36px;&quot;&gt;企微&lt;/font&gt;" style="rounded=1;whiteSpace=wrap;html=1;sketch=1;hachureGap=4;jiggle=2;curveFitting=1;fontFamily=Architects Daughter;fontSource=https%3A%2F%2Ffonts.googleapis.com%2Fcss%3Ffamily%3DArchitects%2BDaughter;" vertex="1" parent="1">
          <mxGeometry x="390" y="380" width="170" height="60" as="geometry" />
        </mxCell>
        <mxCell id="1Vk-jTQf-b6BDEaOAY5S-3" value="&lt;font style=&quot;font-size: 36px;&quot;&gt;QQ&lt;/font&gt;" style="rounded=1;whiteSpace=wrap;html=1;sketch=1;hachureGap=4;jiggle=2;curveFitting=1;fontFamily=Architects Daughter;fontSource=https%3A%2F%2Ffonts.googleapis.com%2Fcss%3Ffamily%3DArchitects%2BDaughter;" vertex="1" parent="1">
          <mxGeometry x="580" y="380" width="170" height="60" as="geometry" />
        </mxCell>
        <mxCell id="1Vk-jTQf-b6BDEaOAY5S-4" value="&lt;font style=&quot;font-size: 36px;&quot;&gt;QQ空间&lt;/font&gt;" style="rounded=1;whiteSpace=wrap;html=1;sketch=1;hachureGap=4;jiggle=2;curveFitting=1;fontFamily=Architects Daughter;fontSource=https%3A%2F%2Ffonts.googleapis.com%2Fcss%3Ffamily%3DArchitects%2BDaughter;" vertex="1" parent="1">
          <mxGeometry x="770" y="380" width="200" height="60" as="geometry" />
        </mxCell>
        <mxCell id="1Vk-jTQf-b6BDEaOAY5S-6" value="&lt;span style=&quot;font-size: 36px;&quot;&gt;安全对抗&lt;/span&gt;" style="rounded=1;whiteSpace=wrap;html=1;sketch=1;hachureGap=4;jiggle=2;curveFitting=1;fontFamily=Architects Daughter;fontSource=https%3A%2F%2Ffonts.googleapis.com%2Fcss%3Ffamily%3DArchitects%2BDaughter;" vertex="1" parent="1">
          <mxGeometry x="200" y="275" width="360" height="60" as="geometry" />
        </mxCell>
        <mxCell id="1Vk-jTQf-b6BDEaOAY5S-7" value="&lt;span style=&quot;font-size: 36px;&quot;&gt;自动化升级&lt;/span&gt;" style="rounded=1;whiteSpace=wrap;html=1;sketch=1;hachureGap=4;jiggle=2;curveFitting=1;fontFamily=Architects Daughter;fontSource=https%3A%2F%2Ffonts.googleapis.com%2Fcss%3Ffamily%3DArchitects%2BDaughter;" vertex="1" parent="1">
          <mxGeometry x="590" y="275" width="360" height="60" as="geometry" />
        </mxCell>
        <mxCell id="1Vk-jTQf-b6BDEaOAY5S-9" value="&lt;span style=&quot;font-size: 36px;&quot;&gt;多开应用&lt;/span&gt;" style="rounded=1;whiteSpace=wrap;html=1;sketch=1;hachureGap=4;jiggle=2;curveFitting=1;fontFamily=Architects Daughter;fontSource=https%3A%2F%2Ffonts.googleapis.com%2Fcss%3Ffamily%3DArchitects%2BDaughter;" vertex="1" parent="1">
          <mxGeometry x="200" y="175" width="360" height="60" as="geometry" />
        </mxCell>
        <mxCell id="1Vk-jTQf-b6BDEaOAY5S-10" value="&lt;span style=&quot;font-size: 36px;&quot;&gt;私域辅助应用&lt;/span&gt;" style="rounded=1;whiteSpace=wrap;html=1;sketch=1;hachureGap=4;jiggle=2;curveFitting=1;fontFamily=Architects Daughter;fontSource=https%3A%2F%2Ffonts.googleapis.com%2Fcss%3Ffamily%3DArchitects%2BDaughter;" vertex="1" parent="1">
          <mxGeometry x="590" y="175" width="360" height="60" as="geometry" />
        </mxCell>
        <mxCell id="1Vk-jTQf-b6BDEaOAY5S-12" value="超核" style="rounded=1;whiteSpace=wrap;html=1;sketch=1;hachureGap=4;jiggle=2;curveFitting=1;fontFamily=Architects Daughter;fontSource=https%3A%2F%2Ffonts.googleapis.com%2Fcss%3Ffamily%3DArchitects%2BDaughter;fontSize=22;" vertex="1" parent="1">
          <mxGeometry x="240" y="70" width="190" height="60" as="geometry" />
        </mxCell>
        <mxCell id="1Vk-jTQf-b6BDEaOAY5S-13" value="逆向工具" style="text;html=1;align=center;verticalAlign=middle;whiteSpace=wrap;rounded=0;fontFamily=Architects Daughter;fontSource=https%3A%2F%2Ffonts.googleapis.com%2Fcss%3Ffamily%3DArchitects%2BDaughter;fontSize=21;" vertex="1" parent="1">
          <mxGeometry x="40" y="395" width="130" height="30" as="geometry" />
        </mxCell>
        <mxCell id="1Vk-jTQf-b6BDEaOAY5S-14" value="稳定性与效率" style="text;html=1;align=center;verticalAlign=middle;whiteSpace=wrap;rounded=0;fontFamily=Architects Daughter;fontSource=https%3A%2F%2Ffonts.googleapis.com%2Fcss%3Ffamily%3DArchitects%2BDaughter;fontSize=21;" vertex="1" parent="1">
          <mxGeometry x="30" y="300" width="130" height="30" as="geometry" />
        </mxCell>
        <mxCell id="1Vk-jTQf-b6BDEaOAY5S-15" value="能力圈外扩" style="text;html=1;align=center;verticalAlign=middle;whiteSpace=wrap;rounded=0;fontFamily=Architects Daughter;fontSource=https%3A%2F%2Ffonts.googleapis.com%2Fcss%3Ffamily%3DArchitects%2BDaughter;fontSize=21;" vertex="1" parent="1">
          <mxGeometry x="30" y="200" width="130" height="30" as="geometry" />
        </mxCell>
        <mxCell id="1Vk-jTQf-b6BDEaOAY5S-17" value="知几" style="rounded=1;whiteSpace=wrap;html=1;sketch=1;hachureGap=4;jiggle=2;curveFitting=1;fontFamily=Architects Daughter;fontSource=https%3A%2F%2Ffonts.googleapis.com%2Fcss%3Ffamily%3DArchitects%2BDaughter;fontSize=22;" vertex="1" parent="1">
          <mxGeometry x="460" y="70" width="190" height="60" as="geometry" />
        </mxCell>
        <mxCell id="1Vk-jTQf-b6BDEaOAY5S-18" value="心悦" style="rounded=1;whiteSpace=wrap;html=1;sketch=1;hachureGap=4;jiggle=2;curveFitting=1;fontFamily=Architects Daughter;fontSource=https%3A%2F%2Ffonts.googleapis.com%2Fcss%3Ffamily%3DArchitects%2BDaughter;fontSize=22;" vertex="1" parent="1">
          <mxGeometry x="680" y="70" width="190" height="60" as="geometry" />
        </mxCell>
        <mxCell id="1Vk-jTQf-b6BDEaOAY5S-20" value="服务业务" style="text;html=1;align=center;verticalAlign=middle;whiteSpace=wrap;rounded=0;fontFamily=Architects Daughter;fontSource=https%3A%2F%2Ffonts.googleapis.com%2Fcss%3Ffamily%3DArchitects%2BDaughter;fontSize=21;" vertex="1" parent="1">
          <mxGeometry x="30" y="90" width="130" height="30" as="geometry" />
        </mxCell>
      </root>
    </mxGraphModel>
  </diagram>
</mxfile>
